<?xml version="1.0" encoding="utf-8"?>
<!-- Generator: Adobe Illustrator 24.0.3, SVG Export Plug-In . SVG Version: 6.00 Build 0)  -->
<svg version="1.1" id="Layer_1" xmlns="http://www.w3.org/2000/svg" xmlns:xlink="http://www.w3.org/1999/xlink" x="0px" y="0px"
	 viewBox="0 0 41 41" style="enable-background:new 0 0 41 41;" xml:space="preserve">
<style type="text/css">
	.st0{fill:#00FF00;}
	.st1{fill:#000033;}
</style>
<g>
	<path class="st0" d="M39.2,6.1c-2.5,2.5-5.1,5.1-7.6,7.6c-1.5-3.6-3.1-7.3-4.5-10.9c-1.1,0.5-2,1.1-3.1,1.5
		c1.6,3.8,3.1,7.6,4.7,11.3c-3.5,0-6.9,0-10.4,0c6.9,6.9,14,13.8,20.9,20.7C39.2,26.3,39.2,16.1,39.2,6.1z"/>
	<path class="st0" d="M41,41C41,40.8,40.8,40.8,41,41L41,41z"/>
	<path class="st1" d="M41,41C41,40.8,40.8,40.8,41,41c-3.6-3.6-7.1-7.1-10.7-10.7S23,23,19.2,19.2c-1.8-1.8-3.6-3.6-5.5-5.5
		c0,0,0-0.2-0.2-0.2c4,0,8,0,12.2,0c-1.5-3.5-2.9-6.9-4.4-10.4c0,0,0.2,0,0.2-0.2c2-1.1,4-2,6-3.1h0.2l0,0v0.2
		c1.5,3.3,2.7,6.5,4.2,9.8v0.2c0,0,0,0,0.2-0.2c2.7-2.7,5.6-5.6,8.4-8.4l0.2-0.2C41,14.6,41,27.7,41,41C41,40.8,41,40.8,41,41z
		 M39.2,36.3c0-10,0-20.2,0-30.2c-2.5,2.5-5.1,5.1-7.6,7.6c-1.5-3.6-3.1-7.3-4.5-10.9c-1.1,0.5-2,1.1-3.1,1.5
		c1.6,3.8,3.1,7.6,4.7,11.3c-3.5,0-6.9,0-10.4,0C25.2,22.5,32.3,29.4,39.2,36.3z"/>
</g>
</svg>
