<?xml version="1.0" encoding="utf-8"?>
<!-- Generator: Adobe Illustrator 24.0.3, SVG Export Plug-In . SVG Version: 6.00 Build 0)  -->
<svg version="1.1" id="Layer_1" xmlns="http://www.w3.org/2000/svg" xmlns:xlink="http://www.w3.org/1999/xlink" x="0px" y="0px"
	 viewBox="0 0 41 41" style="enable-background:new 0 0 41 41;" xml:space="preserve">
<style type="text/css">
	.st0{fill:#000033;}
	.st1{fill:#00FF00;}
</style>
<g>
	<path class="st0" d="M1.7,34.9c2.5-2.5,5.1-5.1,7.6-7.6c1.5,3.6,3.1,7.3,4.5,10.9c1.1-0.5,2-1.1,3.1-1.5c-1.6-3.8-3.1-7.6-4.7-11.3
		c3.5,0,6.9,0,10.4,0c-6.9-6.9-14-13.8-20.9-20.7C1.7,14.7,1.7,24.9,1.7,34.9z"/>
	<path class="st1" d="M-0.1,0C-0.1,0.1,0.1,0.1-0.1,0L-0.1,0z"/>
	<path class="st1" d="M-0.1,0C-0.1,0.1,0.1,0.1-0.1,0C3.5,3.6,7,7,10.6,10.7s7.3,7.3,11.1,11.1c1.8,1.8,3.6,3.6,5.5,5.5
		c0,0,0,0.2,0.2,0.2c-4,0-8,0-12.2,0c1.5,3.5,2.9,6.9,4.4,10.4c0,0-0.2,0-0.2,0.2c-2,1.1-4,2-6,3.1h-0.2l0,0v-0.2
		c-1.5-3.3-2.7-6.5-4.2-9.8v-0.2c0,0,0,0-0.2,0.2c-2.7,2.7-5.6,5.6-8.4,8.4l-0.2,0.2C-0.1,26.3-0.1,13.2-0.1,0
		C-0.1,0.1-0.1,0.1-0.1,0z M1.7,4.7c0,10,0,20.2,0,30.2c2.5-2.5,5.1-5.1,7.6-7.6c1.5,3.6,3.1,7.3,4.5,10.9c1.1-0.5,2-1.1,3.1-1.5
		c-1.6-3.8-3.1-7.6-4.7-11.3c3.5,0,6.9,0,10.4,0C15.7,18.5,8.6,11.6,1.7,4.7z"/>
</g>
</svg>
