<?xml version="1.0" encoding="utf-8"?>
<!-- Generator: Adobe Illustrator 24.0.0, SVG Export Plug-In . SVG Version: 6.00 Build 0)  -->
<svg version="1.1" id="Layer_1" xmlns="http://www.w3.org/2000/svg" xmlns:xlink="http://www.w3.org/1999/xlink" x="0px" y="0px"
	 viewBox="0 0 14.1 20" style="enable-background:new 0 0 14.1 20;" xml:space="preserve">
<style type="text/css">
	.st0{fill:#000033;stroke:#00FF00;stroke-miterlimit:10;}
	.st1{fill:#000033;}
	.st2{fill:#00FF00;}
</style>
<polygon class="st0" points="49.4,-3.8 74.3,21.1 61.2,22.3 60.3,23.3 81.4,26.3 78.3,5.2 77.4,6.2 76.1,19.2 51.2,-5.7 "/>
<polygon class="st0" points="-76.1,-8.4 -54.9,12.8 -62,13.5 -64.2,15.7 -47,18.2 -49.5,1 -51.6,3.2 -52.3,10.3 -73.6,-11 "/>
<g>
	<polygon class="st1" points="-34.4,49.3 -56.7,26.9 -49.2,26.3 -47,24 -65,21.3 -62.4,39.4 -60.1,37.1 -59.4,29.6 -37.1,52 	"/>
	<path class="st2" d="M-65.6,20.7l19.8,2.9l-3.1,3.1l-6.6,0.6l21.9,21.9l-3.4,3.4l-21.9-21.9l-0.6,6.6l-3.1,3.1L-65.6,20.7z
		 M-48.1,24.4L-64.4,22l2.4,16.3l1.4-1.4l0.8-8.4l22.7,22.7l1.9-1.9l-22.7-22.8l8.4-0.8L-48.1,24.4z"/>
</g>
<g>
	<path class="st2" d="M7,1.7C6.3,2.4,5.7,3.1,4.9,3.8c-0.4-1-0.9-2-1.2-3C3.4,0.9,3.2,1.1,2.8,1.2c0.5,1.1,0.9,2.1,1.3,3.1
		c-1,0-1.9,0-2.9,0C3.2,6.2,5.2,8.1,7,10C7,7.3,7,4.4,7,1.7z"/>
	<path class="st2" d="M7.5,11.3C7.5,11.3,7.5,11.3,7.5,11.3L7.5,11.3z"/>
	<path class="st1" d="M7.5,11.3C7.5,11.2,7.5,11.2,7.5,11.3c-1-1-1.9-1.9-2.9-2.9s-2-2-3-3C1,4.8,0.5,4.3,0,3.8c0,0,0,0-0.1,0
		c1.1,0,2.2,0,3.3,0C2.9,2.8,2.5,1.9,2.1,0.9c0,0,0.1,0,0.1,0C2.7,0.6,3.3,0.3,3.8,0h0.1l0,0v0C4.3,0.9,4.6,1.8,5,2.7v0c0,0,0,0,0,0
		C5.8,2,6.6,1.2,7.4,0.5l0.1,0C7.5,4,7.5,7.6,7.5,11.3C7.5,11.2,7.5,11.2,7.5,11.3z M7,10c0-2.7,0-5.5,0-8.3
		C6.3,2.4,5.6,3.1,4.9,3.8c-0.4-1-0.8-2-1.2-3C3.4,0.9,3.1,1.1,2.8,1.2c0.4,1,0.8,2.1,1.3,3.1c-0.9,0-1.9,0-2.8,0
		C3.2,6.2,5.1,8.1,7,10z"/>
</g>
</svg>
