<?xml version="1.0" encoding="utf-8"?>
<!-- Generator: Adobe Illustrator 24.0.0, SVG Export Plug-In . SVG Version: 6.00 Build 0)  -->
<svg version="1.1" id="Layer_1" xmlns="http://www.w3.org/2000/svg" xmlns:xlink="http://www.w3.org/1999/xlink" x="0px" y="0px"
	 viewBox="0 0 27.9 39.8" style="enable-background:new 0 0 27.9 39.8;" xml:space="preserve">
<style type="text/css">
	.st0{fill:#000033;stroke:#00FF00;stroke-miterlimit:10;}
	.st1{fill:#000033;}
	.st2{fill:#00FF00;}
</style>
<polygon class="st0" points="49.4,-3.8 74.3,21.1 61.2,22.3 60.3,23.3 81.4,26.3 78.3,5.2 77.4,6.2 76.1,19.2 51.2,-5.7 "/>
<polygon class="st0" points="-76.1,-8.4 -54.9,12.8 -62,13.5 -64.2,15.7 -47,18.2 -49.5,1 -51.6,3.2 -52.3,10.3 -73.6,-11 "/>
<g>
	<polygon class="st1" points="-34.4,49.3 -56.7,26.9 -49.2,26.3 -47,24 -65,21.3 -62.4,39.4 -60.1,37.1 -59.4,29.6 -37.1,52 	"/>
	<path class="st2" d="M-65.6,20.7l19.8,2.9l-3.1,3.1l-6.6,0.6l21.9,21.9l-3.4,3.4l-21.9-21.9l-0.6,6.6l-3.1,3.1L-65.6,20.7z
		 M-48.1,24.4L-64.4,22l2.4,16.3l1.4-1.4l0.8-8.4l22.7,22.7l1.9-1.9l-22.7-22.8l8.4-0.8L-48.1,24.4z"/>
</g>
<g>
	<path class="st2" d="M14.1,3.4c-1.4,1.4-2.8,2.8-4.2,4.2c-0.8-2-1.7-4-2.5-6C6.8,1.9,6.3,2.2,5.7,2.4c0.9,2.1,1.7,4.2,2.6,6.2
		c-1.9,0-3.8,0-5.7,0c3.8,3.8,7.7,7.6,11.5,11.4C14.1,14.5,14.1,8.9,14.1,3.4z"/>
	<path class="st2" d="M15.1,22.6C15.1,22.5,15,22.5,15.1,22.6L15.1,22.6z"/>
	<path class="st1" d="M15.1,22.6C15.1,22.5,15,22.5,15.1,22.6c-2-2-3.9-3.9-5.9-5.9s-4-4-6.1-6.1c-1-1-2-2-3-3c0,0,0-0.1-0.1-0.1
		c2.2,0,4.4,0,6.7,0C5.9,5.6,5.1,3.7,4.3,1.8c0,0,0.1,0,0.1-0.1C5.5,1.1,6.6,0.6,7.7,0h0.1l0,0v0.1c0.8,1.8,1.5,3.6,2.3,5.4v0.1
		c0,0,0,0,0.1-0.1c1.5-1.5,3.1-3.1,4.6-4.6l0.1-0.1C15.1,8.1,15.1,15.3,15.1,22.6C15.1,22.5,15.1,22.5,15.1,22.6z M14.1,20
		c0-5.5,0-11.1,0-16.6c-1.4,1.4-2.8,2.8-4.2,4.2c-0.8-2-1.7-4-2.5-6C6.8,1.9,6.3,2.2,5.7,2.4c0.9,2.1,1.7,4.2,2.6,6.2
		c-1.9,0-3.8,0-5.7,0C6.4,12.4,10.3,16.2,14.1,20z"/>
</g>
</svg>
