<?xml version="1.0" encoding="utf-8"?>
<!-- Generator: Adobe Illustrator 24.0.0, SVG Export Plug-In . SVG Version: 6.00 Build 0)  -->
<svg version="1.1" id="Layer_1" xmlns="http://www.w3.org/2000/svg" xmlns:xlink="http://www.w3.org/1999/xlink" x="0px" y="0px"
	 viewBox="0 0 27.9 39.8" style="enable-background:new 0 0 27.9 39.8;" xml:space="preserve">
<style type="text/css">
	.st0{fill:#000033;stroke:#00FF00;stroke-miterlimit:10;}
	.st1{fill:#000033;}
	.st2{fill:#00FF00;}
</style>
<polygon class="st0" points="49.4,-3.8 74.3,21.1 61.2,22.3 60.3,23.3 81.4,26.3 78.3,5.2 77.4,6.2 76.1,19.2 51.2,-5.7 "/>
<polygon class="st0" points="-76.1,-8.4 -54.9,12.8 -62,13.5 -64.2,15.7 -47,18.2 -49.5,1 -51.6,3.2 -52.3,10.3 -73.6,-11 "/>
<g>
	<polygon class="st1" points="-34.4,49.3 -56.7,26.9 -49.2,26.3 -47,24 -65,21.3 -62.4,39.4 -60.1,37.1 -59.4,29.6 -37.1,52 	"/>
	<path class="st2" d="M-65.6,20.7l19.8,2.9l-3.1,3.1l-6.6,0.6l21.9,21.9l-3.4,3.4l-21.9-21.9l-0.6,6.6l-3.1,3.1L-65.6,20.7z
		 M-48.1,24.4L-64.4,22l2.4,16.3l1.4-1.4l0.8-8.4l22.7,22.7l1.9-1.9l-22.7-22.8l8.4-0.8L-48.1,24.4z"/>
</g>
<g>
	<path class="st1" d="M13.8,36.4c1.4-1.4,2.8-2.8,4.2-4.2c0.8,2,1.7,4,2.5,6c0.6-0.3,1.1-0.6,1.7-0.8c-0.9-2.1-1.7-4.2-2.6-6.2
		c1.9,0,3.8,0,5.7,0c-3.8-3.8-7.7-7.6-11.5-11.4C13.8,25.3,13.8,30.9,13.8,36.4z"/>
	<path class="st2" d="M12.8,17.2C12.8,17.3,12.9,17.3,12.8,17.2L12.8,17.2z"/>
	<path class="st2" d="M12.8,17.2C12.8,17.3,12.9,17.3,12.8,17.2c2,2,3.9,3.9,5.9,5.9s4,4,6.1,6.1c1,1,2,2,3,3c0,0,0,0.1,0.1,0.1
		c-2.2,0-4.4,0-6.7,0c0.8,1.9,1.6,3.8,2.4,5.7c0,0-0.1,0-0.1,0.1c-1.1,0.6-2.2,1.1-3.3,1.7h-0.1l0,0v-0.1c-0.8-1.8-1.5-3.6-2.3-5.4
		v-0.1c0,0,0,0-0.1,0.1c-1.5,1.5-3.1,3.1-4.6,4.6L13,39C12.8,31.7,12.8,24.5,12.8,17.2C12.8,17.3,12.8,17.3,12.8,17.2z M13.8,19.8
		c0,5.5,0,11.1,0,16.6c1.4-1.4,2.8-2.8,4.2-4.2c0.8,2,1.7,4,2.5,6c0.6-0.3,1.1-0.6,1.7-0.8c-0.9-2.1-1.7-4.2-2.6-6.2
		c1.9,0,3.8,0,5.7,0C21.5,27.4,17.6,23.6,13.8,19.8z"/>
</g>
</svg>
