<?xml version="1.0" encoding="utf-8"?>
<!-- Generator: Adobe Illustrator 24.0.0, SVG Export Plug-In . SVG Version: 6.00 Build 0)  -->
<svg version="1.1" id="Layer_1" xmlns="http://www.w3.org/2000/svg" xmlns:xlink="http://www.w3.org/1999/xlink" x="0px" y="0px"
	 viewBox="0 0 61.52 61.5" style="enable-background:new 0 0 61.52 61.5;" xml:space="preserve">
<style type="text/css">
	.st0{fill:#000033;stroke:#00FF00;stroke-miterlimit:10;}
	.st1{fill:#000033;}
	.st2{fill:#00FF00;}
</style>
<polygon class="st0" points="83.02,17.87 107.92,42.77 94.84,43.98 93.9,44.92 115.02,48 111.94,26.88 111,27.82 109.79,40.9 
	84.89,16 "/>
<polygon class="st0" points="-42.5,13.22 -21.22,34.5 -28.36,35.16 -30.52,37.32 -13.33,39.83 -15.84,22.65 -18,24.81 -18.67,31.94 
	-39.95,10.66 "/>
<g>
	<polygon class="st1" points="60.77,58.07 38.43,35.72 45.92,35.03 48.19,32.76 30.14,30.12 32.78,48.17 35.04,45.9 35.74,38.41 
		58.09,60.76 	"/>
	<path class="st2" d="M29.52,29.5l19.78,2.89l-3.14,3.14l-6.57,0.61l21.93,21.93l-3.43,3.43L36.16,39.57l-0.61,6.57l-3.14,3.14
		L29.52,29.5z M47.08,33.13l-16.32-2.38l2.38,16.32l1.39-1.4l0.78-8.42l22.77,22.77l1.94-1.94L37.26,35.3l8.42-0.78L47.08,33.13z"/>
</g>
</svg>
