<!-- Generator: Adobe Illustrator 24.0.0, SVG Export Plug-In  -->
<svg version="1.1" xmlns="http://www.w3.org/2000/svg" xmlns:xlink="http://www.w3.org/1999/xlink" x="0px" y="0px"
	 width="151.39px" height="101.1px" viewBox="0 0 151.39 101.1" style="enable-background:new 0 0 151.39 101.1;"
	 xml:space="preserve">
<style type="text/css">
	.st0{fill:#FF00BA;}
	.st1{fill:none;}
</style>
<defs>
</defs>
<g>
	<path class="st0" d="M92.95,37.02l36.56-36.46l6.22,6.22L99.27,43.24h30.01v7.93H85.12V7.01l7.83-0.1V37.02z"/>
	<path class="st1" d="M51.01,42.79L14.55,6.22L20.77,0l36.46,36.46V6.45h7.93v44.17H21l-0.1-7.83H51.01z"/>
	<path class="st1" d="M74.59,101.1C47.17,101.1,19.92,88.67,0,64.31l9.2-9.37c17.2,24.69,40.19,35.59,65.39,35.59
		c25.88,0,50.07-11.58,67.43-35.76l9.37,9.54C131.97,87.64,103.02,101.1,74.59,101.1z"/>
</g>
</svg>
