<?xml version="1.0" encoding="utf-8"?>
<!-- Generator: Adobe Illustrator 24.0.0, SVG Export Plug-In . SVG Version: 6.00 Build 0)  -->
<svg version="1.1" id="Layer_1" xmlns="http://www.w3.org/2000/svg" xmlns:xlink="http://www.w3.org/1999/xlink" x="0px" y="0px"
	 viewBox="0 0 61.52 61.51" style="enable-background:new 0 0 61.52 61.51;" xml:space="preserve">
<style type="text/css">
	.st0{fill:#000033;stroke:#00FF00;stroke-miterlimit:10;}
	.st1{fill:#000033;}
	.st2{fill:#00FF00;}
</style>
<polygon class="st0" points="83.02,17.87 107.92,42.77 94.84,43.98 93.9,44.92 115.02,48 111.94,26.88 111,27.82 109.79,40.9 
	84.89,16 "/>
<polygon class="st0" points="-42.5,13.22 -21.22,34.5 -28.36,35.16 -30.52,37.32 -13.33,39.83 -15.84,22.65 -18,24.81 -18.67,31.94 
	-39.95,10.66 "/>
<g>
	<polygon class="st1" points="0.74,3.43 23.09,25.78 15.6,26.47 13.33,28.74 31.38,31.38 28.74,13.33 26.47,15.6 25.78,23.09 
		3.43,0.74 	"/>
	<path class="st2" d="M32,32l-19.78-2.89l3.14-3.14l6.57-0.61L0,3.43L3.43,0l21.93,21.93l0.61-6.57l3.14-3.14L32,32z M14.44,28.37
		l16.32,2.38l-2.38-16.32l-1.39,1.4l-0.78,8.42L3.43,1.48L1.49,3.43L24.26,26.2l-8.42,0.78L14.44,28.37z"/>
</g>
</svg>
