<?xml version="1.0" encoding="utf-8"?>
<!-- Generator: Adobe Illustrator 24.0.0, SVG Export Plug-In . SVG Version: 6.00 Build 0)  -->
<svg version="1.1" id="Layer_1" xmlns="http://www.w3.org/2000/svg" xmlns:xlink="http://www.w3.org/1999/xlink" x="0px" y="0px"
	 viewBox="0 0 100.4 101.9" style="enable-background:new 0 0 100.4 101.9;" xml:space="preserve">
<style type="text/css">
	.st0{fill:#000033;stroke:#00FF00;stroke-width:0.5;stroke-miterlimit:10;}
	.st1{fill:#00FF00;stroke:#000033;stroke-width:0.5;stroke-miterlimit:10;}
</style>
<g>
	<path class="st0" d="M83.1,29.1c0.4-1.6,2.9-1.2,4-3.2c0.9-1.6-0.1-2.8,0.7-3.5c1.2-1.1,5-0.1,6.3,2.5c1.6,3.1-0.9,7.4-2.5,7.5
		c-1.2,0-1.6-2.4-3.2-2.5c-1.6-0.1-2.4,2.3-3.8,2C83.7,31.7,82.8,30.2,83.1,29.1z"/>
	<path class="st0" d="M87.5,63.4c1.2-1.1,3.1,0.7,5.1-0.3c1.6-0.8,1.5-2.3,2.5-2.5c1.6-0.2,4.2,2.8,3.8,5.7
		c-0.4,3.5-4.9,5.6-6.3,4.8c-1-0.7,0.1-2.9-1.2-3.9c-1.3-1-3.3,0.5-4.2-0.5C86.6,65.9,86.7,64.2,87.5,63.4z"/>
	<path class="st0" d="M88.3,41.9c0.6-1.5,3.1-0.7,4.5-2.5c1.1-1.4,0.3-2.7,1.2-3.3c1.3-0.9,4.9,0.7,5.9,3.4c1.1,3.3-2,7.2-3.6,7
		c-1.2-0.2-1.2-2.7-2.8-3c-1.6-0.3-2.7,1.9-4,1.4C88.5,44.6,87.9,43,88.3,41.9z"/>
	<path class="st0" d="M80.8,75.8c1.6-0.3,2.3,2.1,4.7,2.2c1.8,0.1,2.4-1.3,3.4-0.9c1.5,0.6,2.3,4.4,0.6,6.8
		c-2.1,2.8-7.1,2.5-7.8,1.1c-0.6-1.1,1.5-2.5,0.8-4c-0.6-1.5-3.1-1.2-3.5-2.5C78.7,77.5,79.7,76.1,80.8,75.8z"/>
	<path class="st0" d="M18.1,74.8c-0.3,1.6-2.8,1.4-3.8,3.5c-0.7,1.6,0.4,2.7-0.4,3.5c-1.1,1.2-5,0.5-6.5-2c-1.9-2.9,0.2-7.5,1.8-7.7
		c1.2-0.1,1.8,2.3,3.4,2.2c1.6-0.1,2.2-2.5,3.6-2.3C17.3,72.3,18.3,73.7,18.1,74.8z"/>
	<path class="st0" d="M31.4,86.5c0.3,1.6-2.2,2.2-2.4,4.5c-0.2,1.8,1.2,2.5,0.8,3.5c-0.6,1.4-4.6,2.1-6.8,0.2
		c-2.7-2.2-2.2-7.2-0.7-7.8c1.1-0.5,2.4,1.6,4,1c1.5-0.6,1.3-3.1,2.7-3.3C29.8,84.3,31.2,85.3,31.4,86.5z"/>
	<path class="st0" d="M44.2,90.1c1,1.3-0.8,3,0.1,5.2c0.7,1.6,2.3,1.6,2.3,2.7c0.1,1.6-3,4-5.8,3.5c-3.4-0.6-5.4-5.2-4.4-6.5
		c0.7-1,2.9,0.2,4-1c1.1-1.2-0.3-3.3,0.7-4.2C41.8,89,43.5,89.2,44.2,90.1z"/>
	<path class="st0" d="M55,89.8c1.4,0.9,0.2,3.1,1.8,4.8c1.2,1.3,2.7,0.7,3.1,1.7c0.7,1.4-1.4,4.8-4.3,5.3c-3.4,0.6-6.8-3.1-6.4-4.6
		c0.3-1.2,2.8-0.8,3.4-2.3c0.6-1.5-1.4-3-0.8-4.2C52.3,89.6,54,89.2,55,89.8z"/>
	<path class="st0" d="M68.7,86.5c1.6,0.4,1.2,2.9,3.3,4c1.6,0.8,2.8-0.2,3.5,0.6c1.1,1.2,0.2,5-2.3,6.4c-3.1,1.7-7.5-0.7-7.5-2.3
		c-0.1-1.2,2.4-1.6,2.5-3.3c0.1-1.6-2.3-2.4-2.1-3.7C66.2,87.2,67.6,86.3,68.7,86.5z"/>
	<path class="st0" d="M71.1,16.3c-0.3-1.6,2.2-2.3,2.3-4.6c0.1-1.8-1.3-2.4-0.8-3.4c0.6-1.5,4.5-2.2,6.8-0.4
		c2.8,2.1,2.3,7.1,0.9,7.8c-1.1,0.5-2.4-1.6-4-0.9c-1.5,0.6-1.2,3.1-2.6,3.4C72.7,18.3,71.3,17.4,71.1,16.3z"/>
	<path class="st0" d="M40.7,12.1c-1.3-1,0-3.1-1.4-4.9c-1.1-1.4-2.6-0.9-3-2c-0.5-1.5,1.8-4.6,4.7-4.9C44.6,0,47.6,4,47,5.5
		c-0.5,1.1-2.9,0.5-3.6,2c-0.7,1.5,1.2,3.1,0.4,4.3C43.3,12.6,41.6,12.8,40.7,12.1z"/>
	<path class="st0" d="M32.7,16.1c-1.5-0.5-1-3-2.9-4.2c-1.5-1-2.8-0.1-3.4-0.9c-1-1.2,0.3-5,2.9-6.2c3.2-1.4,7.4,1.4,7.3,3
		c-0.1,1.2-2.5,1.4-2.8,3c-0.2,1.6,2.1,2.6,1.7,3.9C35.3,15.7,33.7,16.5,32.7,16.1z"/>
	<path class="st0" d="M18.4,27.7c-1.6,0.2-2.1-2.3-4.4-2.7c-1.8-0.3-2.5,1.1-3.5,0.6c-1.4-0.7-1.8-4.6,0.1-6.8
		c2.3-2.6,7.3-1.8,7.9-0.3c0.5,1.1-1.7,2.3-1.2,3.9c0.5,1.6,3,1.5,3.2,2.8C20.6,26.2,19.5,27.6,18.4,27.7z"/>
	<path class="st0" d="M13.7,39.1c-1.4,0.8-2.9-1.3-5.1-0.7c-1.7,0.5-1.9,2-3,1.9c-1.6-0.1-3.5-3.5-2.6-6.3c1.1-3.3,6-4.5,7.1-3.4
		c0.9,0.9-0.7,2.8,0.4,4.1c1.1,1.2,3.3,0.2,4.1,1.3C15.2,36.8,14.7,38.5,13.7,39.1z"/>
	<path class="st0" d="M12.1,62.7C11.3,64.1,9,63,7.3,64.6c-1.3,1.2-0.7,2.7-1.7,3.2c-1.4,0.7-4.8-1.3-5.4-4.2
		c-0.7-3.4,3-6.9,4.5-6.5c1.2,0.3,0.8,2.8,2.4,3.3c1.6,0.5,3-1.5,4.2-0.8C12.3,60,12.7,61.7,12.1,62.7z"/>
	<circle class="st1" cx="50.2" cy="51" r="40.7"/>
	<path class="st0" d="M57.4,19.4c-1-1.3,0.8-3-0.1-5.1c-0.7-1.6-2.3-1.6-2.4-2.6c-0.2-1.6,2.9-4,5.8-3.6c3.4,0.6,5.4,5.2,4.5,6.5
		c-0.7,1-2.9-0.2-4,1.1c-1.1,1.3,0.4,3.3-0.7,4.2C59.9,20.5,58.1,20.3,57.4,19.4z"/>
	<path class="st0" d="M67,14.9c-0.7-1.5,1.6-2.7,1.2-5c-0.3-1.8-1.8-2.1-1.6-3.2c0.3-1.6,3.9-3.1,6.5-1.9c3.2,1.5,3.9,6.4,2.6,7.4
		c-0.9,0.8-2.7-1-4.1,0c-1.3,0.9-0.5,3.3-1.8,3.9C69,16.6,67.4,16,67,14.9z"/>
	<path class="st0" d="M74,24.6c0.1-1.6,2.6-1.7,3.3-3.9c0.5-1.7-0.7-2.7,0-3.5c0.9-1.3,4.9-1.1,6.7,1.2c2.2,2.7,0.6,7.5-0.9,7.8
		c-1.2,0.3-2-2.1-3.7-1.8c-1.6,0.2-1.9,2.7-3.3,2.7C75.1,27,73.9,25.7,74,24.6z"/>
	<path class="st0" d="M40.3,20c-1.5-0.8-0.5-3.1-2.2-4.7c-1.3-1.2-2.7-0.5-3.2-1.5c-0.8-1.4,1.1-4.9,3.9-5.6c3.4-0.9,7,2.5,6.7,4.1
		c-0.2,1.2-2.7,1-3.2,2.6c-0.5,1.6,1.7,2.9,1.1,4.1C42.9,19.9,41.3,20.5,40.3,20z"/>
	<path class="st0" d="M23.5,27.9c-1.6-0.2-1.5-2.8-3.7-3.6c-1.7-0.7-2.7,0.5-3.5-0.3c-1.2-1-0.7-4.9,1.7-6.6c2.9-2,7.5,0,7.7,1.5
		c0.2,1.2-2.2,1.9-2.1,3.5c0.1,1.6,2.6,2.1,2.5,3.5C26,27,24.6,28,23.5,27.9z"/>
	<path class="st0" d="M19.9,45.1c-1.6,0.5-2.5-1.9-4.8-1.8c-1.8,0.1-2.3,1.5-3.3,1.2c-1.5-0.5-2.6-4.2-1.1-6.7
		c1.8-3,6.8-3.1,7.7-1.7c0.6,1-1.3,2.6-0.5,4.1c0.8,1.5,3.2,0.9,3.7,2.2C21.7,43.2,20.9,44.7,19.9,45.1z"/>
	<path class="st0" d="M22.9,62.3c-0.8,1.4-3.1,0.5-4.7,2.2c-1.2,1.3-0.5,2.7-1.5,3.2c-1.4,0.8-4.9-1.1-5.6-3.9
		c-0.9-3.4,2.6-7,4.1-6.7c1.2,0.3,1,2.7,2.5,3.2c1.6,0.5,2.9-1.7,4.1-1.1C22.9,59.7,23.5,61.3,22.9,62.3z"/>
	<path class="st0" d="M24.4,77.2c-0.3,1.6-2.8,1.4-3.8,3.5c-0.7,1.6,0.4,2.7-0.4,3.5c-1.1,1.2-5,0.5-6.5-2c-1.9-2.9,0.2-7.5,1.8-7.7
		c1.2-0.1,1.8,2.3,3.4,2.2c1.6-0.1,2.2-2.5,3.6-2.3C23.6,74.7,24.6,76.1,24.4,77.2z"/>
	<path class="st0" d="M12.8,50C12,51.4,9.7,50.2,8,51.9c-1.3,1.2-0.7,2.7-1.7,3.2c-1.4,0.7-4.8-1.3-5.4-4.2c-0.7-3.4,3-6.9,4.5-6.5
		c1.2,0.3,0.8,2.8,2.4,3.3c1.5,0.5,3-1.5,4.2-0.8C12.9,47.3,13.4,49,12.8,50z"/>
	<path class="st0" d="M48.3,11.9c-1.2-1.1,0.5-3.1-0.7-5.1c-0.9-1.5-2.4-1.3-2.7-2.3c-0.3-1.5,2.4-4.4,5.3-4.2
		c3.5,0.2,6,4.5,5.2,5.9c-0.6,1.1-2.9,0.1-3.8,1.5c-0.9,1.4,0.8,3.2-0.2,4.3C50.8,12.7,49.1,12.7,48.3,11.9z"/>
	<path class="st0" d="M36.8,85.1c0.8,1.4-1.4,2.8-0.9,5.1c0.4,1.7,1.9,2,1.8,3.1c-0.2,1.6-3.7,3.4-6.4,2.4c-3.3-1.2-4.3-6.1-3.1-7.2
		c0.9-0.8,2.8,0.8,4.1-0.3c1.3-1,0.3-3.3,1.5-4C34.6,83.5,36.2,84.1,36.8,85.1z"/>
	<path class="st0" d="M43.1,83.7c0.8,1.4-1.4,2.8-0.9,5.1c0.4,1.7,1.9,2,1.8,3.1c-0.2,1.6-3.7,3.4-6.4,2.4c-3.3-1.2-4.3-6.1-3.1-7.2
		c0.9-0.8,2.8,0.8,4.1-0.3c1.3-1,0.3-3.3,1.5-4C41,82.2,42.6,82.7,43.1,83.7z"/>
	<path class="st0" d="M59.7,82.7c1.5,0.7,0.6,3.1,2.3,4.6c1.4,1.2,2.7,0.4,3.3,1.3c0.8,1.4-0.9,4.9-3.7,5.7c-3.3,1-7.1-2.3-6.8-3.9
		c0.2-1.2,2.7-1.1,3.1-2.7c0.4-1.6-1.8-2.8-1.2-4.1C57,82.8,58.7,82.2,59.7,82.7z"/>
	<path class="st0" d="M73.4,75.8c1.6-0.3,2.3,2.1,4.7,2.2c1.8,0.1,2.4-1.3,3.4-0.9c1.5,0.6,2.3,4.4,0.6,6.8C80,86.7,75,86.4,74.2,85
		c-0.6-1.1,1.5-2.5,0.8-4c-0.6-1.5-3.1-1.2-3.5-2.5C71.4,77.5,72.3,76.1,73.4,75.8z"/>
	<path class="st0" d="M78.7,60.4c1.5-0.7,2.8,1.5,5.1,1c1.8-0.4,2-1.9,3.1-1.8c1.6,0.2,3.3,3.7,2.2,6.4c-1.3,3.2-6.2,4.2-7.3,3
		c-0.8-0.9,0.8-2.8-0.2-4.1c-1-1.3-3.3-0.3-4-1.6C77.1,62.6,77.7,61,78.7,60.4z"/>
	<path class="st0" d="M78.6,41.5c0.5-1.6,3-1,4.2-3c0.9-1.5,0-2.8,0.9-3.5c1.2-1,5,0.2,6.2,2.8c1.4,3.2-1.3,7.4-2.9,7.3
		c-1.2,0-1.4-2.5-3.1-2.7c-1.6-0.2-2.5,2.2-3.9,1.8C79.1,44.1,78.3,42.6,78.6,41.5z"/>
	<path class="st0" d="M48.2,25.4c-0.8-1.3-1.7-1.1-2.3-2.3c-0.6-1.2-0.5-3.1,0.3-3.7c1.1-0.8,2.6,1.3,5.4,1c2.1-0.2,2.7-1.5,3.7-1
		c1.3,0.6,1.9,3.2,1,4.7c-0.6,1-1.5,0.9-2,2c-0.6,1.3,0.3,2.2-0.3,3c-0.8,1-3.5,1-4.7-0.3C48.3,27.8,49.1,26.9,48.2,25.4z"/>
	<path class="st0" d="M29.7,33.1c1,0.6,0.7,1.1,1.7,1.7c1.4,0.8,3,0.4,3,0.3c1-0.3,2.3-1.2,2.3-2.3c0-1.1-1.1-1.2-1.3-2.7
		c-0.2-1.3,0.5-1.6,0.3-3c-0.2-1.1-0.9-2.5-2-2.7c-1.1-0.2-2.2,0.8-2.3,1c-0.9,0.9-0.6,1.4-1.3,2c-0.7,0.5-1.1,0.2-2.3,0.7
		c-0.7,0.3-1.8,0.7-2,1.7c-0.2,0.9,0.4,1.8,1,2.3C27.7,32.9,28.5,32.3,29.7,33.1z"/>
	<path class="st0" d="M50.2,37.5c-0.6,0.2-1-1.1-2-1.3c-1.5-0.4-3.9,1.2-4,3.3c0,1.2,0.7,2.5,1.7,3c1.2,0.7,1.9,0,3,0.7
		c1,0.7,0.7,1.5,1.7,2.3c1,0.8,2.6,1.1,3.7,0.3c1.1-0.8,1-2.5,1-2.7c-0.1-1.3-0.8-1.5-0.7-2.3c0.2-1.2,1.7-1.2,2-2.3
		c0.3-1.1-0.7-2.4-1.7-3c-0.9-0.6-2.4-1-3.3-0.3C50.5,35.8,50.8,37.3,50.2,37.5z"/>
	<path class="st0" d="M69.2,28.1c-0.5-0.6,0.8-1.8,0.3-2.7c-0.4-0.8-2.3-0.9-3.7-0.3c-1,0.4-2.2,1.4-2.3,2.7c-0.1,1,0.6,1.2,0.7,2.3
		c0,1.6-1.3,1.9-1.3,3.4c0,1.4,1.1,3.1,2.7,3.3c0.9,0.2,2.1-0.2,2.7-1c0.5-0.7,0.2-1.3,0.7-1.7c0.6-0.5,1.3,0.2,2.3,0
		c1.4-0.3,2.8-2.2,2.3-3.7c-0.3-1.1-1.5-1.8-2.3-2C70.2,28.1,69.6,28.5,69.2,28.1z"/>
	<path class="st0" d="M40.8,47.5c-0.3-0.6-1.5-0.8-2-0.3c-0.6,0.6,0,2.2,0.7,2.3C40.1,49.6,41.2,48.3,40.8,47.5z"/>
	<path class="st0" d="M56.2,50.2c-0.9-0.3-2.1,0.1-2.3,1c-0.2,0.9,0.7,1.9,1.7,2c0.9,0.1,1.9-0.5,2-1.3
		C57.6,51.1,56.9,50.4,56.2,50.2z"/>
	<path class="st0" d="M39.5,59.2c-1.1,0-2,1-2,2c0,0.7,0.4,1.4,1,1.7c1.1,0.6,2.8-0.1,3-1.3C41.7,60.5,40.7,59.2,39.5,59.2z"/>
	<path class="st0" d="M41.5,33.1c-0.8-0.3-1.8,0.2-2,1c-0.2,0.7,0.2,1.3,0.7,1.7c0.8,0.5,2,0.2,2.3-0.7
		C42.8,34.4,42.3,33.4,41.5,33.1z"/>
	<path class="st0" d="M22.4,31.1c-0.9,0.3-1.6,1.3-1.3,2c0.2,0.6,1.1,0.8,1.7,0.7c1.2-0.2,2-1.7,1.7-2.3
		C24.1,30.9,23.1,30.8,22.4,31.1z"/>
	<path class="st0" d="M43.8,31.8c-0.6-0.1-1.1-0.2-1.3,0c-0.4,0.5,0.3,2.3,1.3,2.3c0.8,0,1.6-1.1,1.3-1.7C45,32,44.4,31.9,43.8,31.8
		z"/>
	<path class="st0" d="M36.8,20.4c-1-0.1-1.8,1.1-1.7,2c0,0,0.1,0.7,0.7,1c0.8,0.4,2.1,0,2.3-1C38.3,21.5,37.6,20.5,36.8,20.4z"/>
	<path class="st0" d="M28.1,15c0.8-0.5,2.3,0.4,2.3,1.3c0,0.9-1.5,1.8-2.3,1.3C27.3,17.2,27.3,15.5,28.1,15z"/>
	<path class="st0" d="M14,30.1c-0.7,1,0.3,2.6,1,2.7c0.8,0,2-2.3,1.3-3C15.9,29.3,14.6,29.3,14,30.1z"/>
	<path class="st0" d="M21.7,36.5c-0.4-0.3-1.2-0.2-1.7,0.3c-0.8,0.9,0.1,2.7,0.7,2.7C21.4,39.5,22.3,37.1,21.7,36.5z"/>
	<path class="st0" d="M26.4,58.5c-0.6-0.3-1.3,0.2-1.7,0.7c-0.6,0.9-0.1,2.5,0.7,2.7c0.7,0.1,1.7-1,1.7-2
		C27.1,59.8,27,58.8,26.4,58.5z"/>
	<path class="st0" d="M27.1,53.9c0.5,1.1-0.5,1.9,0,3s2.1,2.1,3.7,1.7c1.7-0.5,2.3-2.2,2.3-3.3c0-1-0.5-1.1-0.3-2
		c0.2-1.5,1.8-1.7,2-3c0.2-1.4-1.2-2.6-1.3-2.7c-1.3-1.1-3.5-1.1-4-0.3c-0.4,0.5,0,1.1-0.3,1.3c-0.4,0.2-0.9-0.5-2-0.7
		c-0.2,0-1.3-0.2-2,0.3c-0.9,0.7-1,2.5-0.3,3.7C25.4,53,26.6,52.8,27.1,53.9z"/>
	<path class="st0" d="M48.5,60.2c-0.5,0.2-0.8-0.3-1.7-0.3c-1.2,0-2.8,0.9-3,2.3c-0.3,1.6,1.1,3,2.3,3.4c1.1,0.3,1.7-0.4,2.3,0
		c0.8,0.6,0.2,1.9,1,2.7c0.7,0.7,2.1,0.5,3,0c1.3-0.8,1.7-2.5,1.3-3.7c-0.3-1-1-1-1-1.7c0-1.2,2.6-1.5,2.7-2.7c0.1-1-1.7-2-2.7-2.3
		c-0.6-0.2-2.1-0.7-3,0C48.9,58.6,49.3,59.9,48.5,60.2z"/>
	<path class="st0" d="M29.7,63.6c1.1-0.2,2.4,1.3,2,2.3c-0.3,0.8-1.4,1.4-2.3,1c-0.6-0.3-1-1-1-1.7C28.4,64.4,29,63.7,29.7,63.6z"/>
	<path class="st0" d="M29.4,70.3c-1.2,0.5-1.9-0.4-3,0c-1,0.4-1.9,1.6-1.7,2.7c0.2,1.3,1.8,1.9,2,2c1.2,0.5,2,0.1,2.3,0.7
		c0.3,0.5-0.1,0.9,0,1.7c0.2,1.2,1.6,2.7,3.4,2.3c1.6-0.3,2.5-1.9,2.3-3c-0.1-0.8-0.7-1-0.7-1.7c0.1-1.1,1.6-1.3,1.7-2.3
		c0.1-0.9-1-1.1-1-2c-0.1-1.3,1.9-2,1.7-2.7c-0.2-0.6-2-0.9-3.3-0.3c-0.6,0.2-1,0.6-2,1.3C29.8,69.9,29.9,70.1,29.4,70.3z"/>
	<path class="st0" d="M42.1,71.9c-0.1,0-0.8-0.2-1.3,0.3c-0.7,0.6-0.7,1.8,0,2.3c0.6,0.5,1.6,0.1,1.7,0c0.2-0.1,1-0.5,1-1.3
		C43.5,72.6,42.7,72.1,42.1,71.9z"/>
	<path class="st0" d="M48.5,70.9c-0.8,0-1.9,0.5-2,1.3c-0.1,0.8,0.7,1.5,1.3,1.7c1.1,0.4,2.6-0.4,2.7-1.3
		C50.5,71.8,49.5,71,48.5,70.9z"/>
	<path class="st0" d="M49.2,74.9c-2,1.1-1.6,2.8-3.3,4c-1.3,0.9-2,0.3-3,1.3c-0.8,0.8-1.6,2.3-1,3.3c0.6,1.1,2.4,1.1,3.3,1
		c0.9-0.1,1.1-0.5,1.7-0.3c1,0.2,1,1.3,2,2c1.1,0.7,3,0.7,4-0.3c0.7-0.7,1.1-1.8,0.7-2.7c-0.5-1.1-2.3-1-2.3-1.7
		c0-0.5,1.2-0.6,1.7-1.7c0.3-0.7,0.2-1.8-0.3-2.3c-0.9-0.8-2.6,0.2-3-0.3c-0.4-0.6,1.3-2.3,1-2.7C50.3,74.4,49.7,74.7,49.2,74.9z"/>
	<path class="st0" d="M64.2,68.3c-0.6,0-1.4,1.3-1.3,2.7c0.1,1.3,0.9,1.5,1,2.7c0.1,1.5-1.2,1.8-1.3,3.7c0,0.1-0.2,2.3,1,3
		c1,0.5,2.5-0.1,3.3-1c0.8-0.8,0.8-1.6,1.3-1.7c0.6-0.1,0.8,0.7,1.7,1c1.1,0.4,2.5,0,3.3-1c0.7-0.8,1.2-2.3,0.7-3
		c-0.8-1-3.4,0-3.7-0.7c-0.2-0.5,1.3-1.1,1.3-2.3c0-1.1-1.1-1.8-1.3-2c-0.9-0.7-2.5-1-3.3-0.3c-0.8,0.7-0.6,2-1,2
		C65.3,71.3,65.1,68.3,64.2,68.3z"/>
	<path class="st0" d="M66.2,58.2c-0.6-0.7-2.1-0.5-2.7,0.3c-0.7,1,0,2.8,1,3c0.8,0.2,1.9-0.9,2-2C66.6,59.4,66.7,58.7,66.2,58.2z"/>
	<path class="st0" d="M76.3,69.9c-0.6-0.4-1.6,0-2,0.7c-0.5,0.8-0.3,2.1,0.3,2.3c0.7,0.3,1.7-0.4,2-1.3
		C76.8,71.1,76.8,70.3,76.3,69.9z"/>
	<path class="st0" d="M46.8,87.7c-0.2-0.6-1.2-0.9-2-0.7c-0.1,0-0.9,0.3-1,1c-0.1,0.6,0.5,1.2,1,1.3C45.8,89.6,47,88.4,46.8,87.7z"
		/>
	<path class="st0" d="M28.4,81.3c-0.2-0.7-1-1.3-1.7-1c-0.5,0.2-0.8,0.8-0.7,1.3c0.2,0.9,1.4,1.4,2,1C28.5,82.4,28.5,81.8,28.4,81.3
		z"/>
	<path class="st0" d="M50.5,90c-0.8-1.1-2.6-1.1-3.3,0c-0.5,0.8-0.5,2,0.3,2.7c0.8,0.7,1.9,0.7,2.7,0C51,92,51,90.8,50.5,90z"/>
	<path class="st0" d="M69.9,82.7c-1-0.5-2.7,0.7-2.7,1.7c0.1,1,2.1,2,3,1.3C71,85.1,70.9,83.2,69.9,82.7z"/>
	<path class="st0" d="M55.2,76.6c-0.1,0-1-0.2-1.3,0.3c-0.3,0.5,0.1,1.4,0.7,1.7c0.8,0.4,2-0.4,2-1C56.5,77.1,55.8,76.7,55.2,76.6z"
		/>
	<path class="st0" d="M65.6,49.2c-0.4,0.6-1.5-0.2-2.3,0.3c-0.8,0.6-1,2.2-0.3,3.3c0.3,0.5,0.6,0.7,1,1c1.1,0.8,1.8,0.6,3,1.3
		c0.7,0.4,0.5,0.5,1.3,1c1.3,0.9,2.6,1.7,3.7,1.3c1.2-0.4,1.7-2.2,1.7-3.3c0-1.1-0.6-2.6-1.7-3c-0.8-0.3-1.6,0.2-1.7,0
		c-0.1-0.3,2.6-1.2,2.7-2.7c0-0.5-0.3-0.9-1-1.7c-1-1.2-1.7-1.9-2.7-2c-1.7-0.2-3.6,1.5-3.7,3C65.5,48.5,65.8,48.8,65.6,49.2z"/>
	<path class="st0" d="M67.6,42.2c-0.3-0.3-0.8-0.5-1.3-0.3c-0.6,0.2-0.7,0.9-0.7,1.3c0.1,0.8,0.8,1.4,1.3,1.3
		C67.6,44.4,68.2,42.9,67.6,42.2z"/>
	<path class="st0" d="M61.2,50.5c-0.8-0.3-2,0.6-2,1.7c0,0.8,0.6,1.6,1.3,1.7c0.7,0,1.1-0.6,1.3-1C62.3,52,61.9,50.8,61.2,50.5z"/>
	<path class="st0" d="M83,53.2c-0.9-0.2-2,0.6-2,1.3c0,0.4,0.3,0.8,0.7,1c1,0.5,2.6-0.2,2.7-1C84.3,54,83.7,53.3,83,53.2z"/>
	<path class="st0" d="M86.6,54.2c-0.8,0-1.5,2.2-1,2.7c0.4,0.3,1.8,0,2-1C87.8,55,87.1,54.2,86.6,54.2z"/>
	<path class="st0" d="M87.1,50.2c1-1.3,3.2,0,5-1.4c1.4-1.1,0.9-2.6,2-3c1.5-0.5,4.6,1.8,4.9,4.8c0.3,3.5-3.7,6.5-5.2,6
		c-1.1-0.4-0.5-2.9-2-3.6c-1.5-0.7-3.1,1.2-4.3,0.4C86.7,52.8,86.4,51.1,87.1,50.2z"/>
	<path class="st0" d="M60.9,21.7c0.4-0.9,2.1-1.1,2.7-0.3c0.3,0.4,0.2,1,0,1.3c-0.4,0.7-1.3,1.1-2,0.7
		C60.9,23.1,60.7,22.3,60.9,21.7z"/>
	<path class="st0" d="M53.8,15.4"/>
	<path class="st0" d="M54.5,15.4c0.2-0.5,0.9-0.6,1-0.7c0.7-0.1,1.6,0.2,1.7,0.7c0.1,0.6-1.2,1.7-2,1.3
		C54.7,16.5,54.3,15.9,54.5,15.4z"/>
	<path class="st0" d="M63.5,19.4c0.2-0.5,2.2-0.3,2.3,0.3c0.1,0.4-0.4,0.9-1,1C64,20.8,63.4,19.7,63.5,19.4z"/>
	<path class="st0" d="M72.2,19.4c0.2-0.5,1.7-0.9,2.3,0c0.5,0.7,0.2,1.8-0.3,2C73.5,21.7,72,20,72.2,19.4z"/>
	<path class="st0" d="M69.6,19c0-0.4,0.7-0.8,1.3-0.7c0.9,0.2,1.3,1.4,1,1.7C71.6,20.5,69.6,19.7,69.6,19z"/>
</g>
</svg>
