<?xml version="1.0" encoding="utf-8"?>
<!-- Generator: Adobe Illustrator 24.0.0, SVG Export Plug-In . SVG Version: 6.00 Build 0)  -->
<svg version="1.1" id="Layer_1" xmlns="http://www.w3.org/2000/svg" xmlns:xlink="http://www.w3.org/1999/xlink" x="0px" y="0px"
	 viewBox="0 0 151.4 101.1" style="enable-background:new 0 0 151.4 101.1;" xml:space="preserve">
<style type="text/css">
	.st0{fill:none;}
	.st1{fill:#00FF00;}
	.st2{fill:#000033;}
</style>
<g>
	<path class="st0" d="M92.9,37l36.6-36.5l6.2,6.2L99.3,43.2h30v7.9H85.1V7L93,6.9C93,6.9,93,37,92.9,37z"/>
	<path class="st0" d="M51,42.8L14.6,6.2L20.8,0l36.5,36.5v-30h7.9v44.2H21l-0.1-7.8H51z"/>
	<path class="st0" d="M74.6,101.1c-27.4,0-54.7-12.4-74.6-36.8l9.2-9.4c17.2,24.7,40.2,35.6,65.4,35.6c25.9,0,50.1-11.6,67.4-35.8
		l9.4,9.5C132,87.6,103,101.1,74.6,101.1z"/>
</g>
<g>
	<path class="st1" d="M83.2,10.5c-2.7,2.7-5.6,5.6-8.3,8.3c-1.6-3.9-3.4-8-4.9-12c-1.2,0.5-2.2,1.2-3.4,1.6
		c1.8,4.2,3.4,8.3,5.2,12.4c-3.8,0-7.6,0-11.4,0c7.6,7.6,15.4,15.1,22.9,22.7C83.2,32.7,83.2,21.5,83.2,10.5z"/>
	<path class="st1" d="M85.2,48.8C85.2,48.7,85,48.7,85.2,48.8L85.2,48.8z"/>
	<path class="st2" d="M85.2,48.8C85.2,48.7,85,48.7,85.2,48.8c-3.9-3.9-7.8-7.7-11.7-11.7s-8-8-12.2-12.2c-2-2-3.9-3.9-6-6
		c0,0,0-0.2-0.2-0.2c4.4,0,8.8,0,13.4,0c-1.6-3.8-3.2-7.6-4.8-11.4c0,0,0.2,0,0.2-0.2c2.2-1.2,4.4-2.2,6.6-3.4h0.2l0,0v0.2
		c1.6,3.6,3,7.1,4.6,10.8v0.2c0,0,0,0,0.2-0.2c3-3,6.1-6.1,9.2-9.2l0.2-0.2C85.2,20,85.2,34.3,85.2,48.8
		C85.2,48.7,85.2,48.7,85.2,48.8z M83.2,43.7c0-11,0-22.2,0-33.1c-2.7,2.7-5.6,5.6-8.3,8.3c-1.6-3.9-3.4-8-4.9-12
		c-1.2,0.5-2.2,1.2-3.4,1.6c1.8,4.2,3.4,8.3,5.2,12.4c-3.8,0-7.6,0-11.4,0C67.9,28.5,75.7,36.1,83.2,43.7z"/>
</g>
</svg>
