<?xml version="1.0" encoding="utf-8"?>
<!-- Generator: Adobe Illustrator 24.0.0, SVG Export Plug-In . SVG Version: 6.00 Build 0)  -->
<svg version="1.1" id="Layer_1" xmlns="http://www.w3.org/2000/svg" xmlns:xlink="http://www.w3.org/1999/xlink" x="0px" y="0px"
	 viewBox="0 0 134.1 117.6" style="enable-background:new 0 0 134.1 117.6;" xml:space="preserve">
<style type="text/css">
	.st0{fill:#000033;}
	.st1{fill:#00FF00;}
</style>
<g>
	<path class="st0" d="M70,107.2c4.1-4.1,8.4-8.4,12.6-12.6c2.5,5.9,5.1,12.1,7.4,18c1.8-0.8,3.3-1.8,5.1-2.5
		c-2.6-6.3-5.1-12.6-7.8-18.7c5.8,0,11.4,0,17.2,0C93.2,80.1,81.4,68.7,70,57.4C70,73.9,70,90.7,70,107.2z"/>
	<path class="st1" d="M67.1,49.6C67.1,49.8,67.4,49.8,67.1,49.6L67.1,49.6z"/>
	<path class="st1" d="M67.1,49.6C67.1,49.8,67.4,49.8,67.1,49.6c5.9,5.9,11.7,11.6,17.7,17.7c5.9,6.1,12.1,12.1,18.3,18.3
		c3,3,5.9,5.9,9.1,9.1c0,0,0,0.3,0.3,0.3c-6.6,0-13.2,0-20.2,0c2.5,5.8,4.8,11.4,7.3,17.2c0,0-0.3,0-0.3,0.3
		c-3.3,1.8-6.6,3.3-9.9,5.1H89l0,0v-0.3c-2.5-5.5-4.5-10.7-6.9-16.2v-0.3c0,0,0,0-0.3,0.3c-4.5,4.5-9.3,9.3-13.9,13.9l-0.3,0.3
		C67.1,93,67.1,71.4,67.1,49.6C67.1,49.8,67.1,49.8,67.1,49.6z M70,57.4c0,16.5,0,33.4,0,49.9c4.1-4.1,8.4-8.4,12.6-12.6
		c2.5,5.9,5.1,12.1,7.4,18c1.8-0.8,3.3-1.8,5.1-2.5c-2.6-6.3-5.1-12.6-7.8-18.7c5.8,0,11.4,0,17.2,0C93.2,80.1,81.4,68.7,70,57.4z"
		/>
</g>
</svg>
